<?xml version="1.0" encoding="UTF-8" standalone="no"?>
<svg
   viewBox="0 0 43.029997 48.77"
   version="1.1"
   id="svg19"
   sodipodi:docname="uparticipa-logotipo.svg"
   inkscape:version="1.4 (e7c3feb100, 2024-10-09)"
   width="43.029999"
   height="48.77"
   inkscape:export-filename="uparticipa-logotipo.png"
   inkscape:export-xdpi="300"
   inkscape:export-ydpi="300"
   xmlns:inkscape="http://www.inkscape.org/namespaces/inkscape"
   xmlns:sodipodi="http://sodipodi.sourceforge.net/DTD/sodipodi-0.dtd"
   xmlns="http://www.w3.org/2000/svg"
   xmlns:svg="http://www.w3.org/2000/svg"
   xmlns:rdf="http://www.w3.org/1999/02/22-rdf-syntax-ns#"
   xmlns:cc="http://creativecommons.org/ns#"
   xmlns:dc="http://purl.org/dc/elements/1.1/">
  <sodipodi:namedview
     id="namedview19"
     pagecolor="#ffffff"
     bordercolor="#666666"
     borderopacity="1.0"
     inkscape:showpageshadow="2"
     inkscape:pageopacity="0.0"
     inkscape:pagecheckerboard="0"
     inkscape:deskcolor="#d1d1d1"
     showguides="false"
     inkscape:zoom="8.0801818"
     inkscape:cx="8.2918927"
     inkscape:cy="28.031548"
     inkscape:window-width="1920"
     inkscape:window-height="1008"
     inkscape:window-x="0"
     inkscape:window-y="0"
     inkscape:window-maximized="1"
     inkscape:current-layer="Diseño_de_Marca"
     showgrid="false">
    <sodipodi:guide
       position="155.19692,102.728"
       orientation="0,-1"
       id="guide19"
       inkscape:locked="false" />
  </sodipodi:namedview>
  <defs
     id="defs1">
    <style
       id="style1">.cls-1{fill:#70c2ee;}.cls-2{fill:#004b93;}.cls-3{fill:#0095d4;}.cls-4{fill:#93d5f6;}</style>
  </defs>
  <title
     id="title1">logo</title>
  <g
     id="Capa_2"
     data-name="Capa 2">
    <g
       id="Diseño_de_Marca"
       data-name="Diseño de Marca">
      <polygon
         class="cls-1"
         points="7.39,40.62 0,36.35 0,23.93 0,11.5 10.76,5.29 19.92,0 19.92,8.54 14.46,11.69 7.39,15.77 7.39,19.06 7.39,23.93 7.39,32.08 "
         id="polygon1"
         style="fill:#93d5f6;fill-opacity:1" />
      <polygon
         class="cls-2"
         points="28.58,36.16 34.05,33 41.44,37.27 32.28,42.56 21.52,48.77 14.79,44.88 14.79,36.35 21.52,40.23 "
         id="polygon2"
         style="fill:#93d5f6;fill-opacity:1" />
      <polygon
         class="cls-3"
         points="35.64,23.93 35.64,15.77 28.58,11.69 23.11,8.54 23.11,0 32.28,5.29 43.03,11.5 43.03,23.93 43.03,34.51 35.64,30.24 "
         id="polygon3"
         style="fill:#004a91;fill-opacity:1" />
      <polygon
         class="cls-4"
         points="21.52,31.68 18.16,29.75 14.8,27.8 14.8,23.93 14.8,20.05 18.16,18.11 21.52,16.16 24.88,18.11 28.24,20.05 28.24,23.93 28.24,27.8 24.88,29.75 "
         id="polygon4"
         style="fill:#ffeea8;fill-opacity:1" />
    </g>
  </g>
  <metadata
     id="metadata19">
    <rdf:RDF>
      <cc:Work
         rdf:about="">
        <dc:title>logo</dc:title>
      </cc:Work>
    </rdf:RDF>
  </metadata>
</svg>
